<svg width="98" height="98" viewBox="0 0 98 98" fill="none" xmlns="http://www.w3.org/2000/svg"><path d="M49 97.999c27.061 0 48.999-21.938 48.999-49C97.999 21.938 76.06 0 48.999 0 21.938 0 0 21.938 0 49 0 76.06 21.938 97.998 49 97.998z" fill="url(#paint0_linear_3360_56919)"/><path d="M49 95.52c25.692 0 46.52-20.828 46.52-46.52C95.52 23.308 74.691 2.48 49 2.48 23.308 2.48 2.48 23.308 2.48 49c0 25.692 20.828 46.52 46.52 46.52z" fill="#fff"/><path d="M43.558 68.87a1.302 1.302 0 00-.338-.048c-.7 0-1.206.482-1.206 1.327v6.513c0 1.328.82 2.173 2.191 2.173 1.23 0 1.762-.46 1.762-1.037a.817.817 0 00-.121-.46c-.339.16-.707.25-1.081.264-.773 0-1.207-.338-1.207-1.303v-4.245c.364-.08.737-.12 1.11-.12.473-.007.945.058 1.4.194.066-.152.1-.317.096-.483 0-.604-.386-.917-1.351-.917a4.405 4.405 0 00-1.253.193l-.002-2.052zM38.806 70.799c-.188.008-.375.04-.554.096v5.646a2.39 2.39 0 01-1.983 1.061c-.749 0-1.208-.48-1.208-1.35v-4.343c0-.651-.337-1.11-.963-1.11a1.386 1.386 0 00-.58.096v5.67c0 1.713 1.158 2.317 2.296 2.317.939 0 1.906-.459 2.438-1.11v.048c0 .532.216.918.916.918.217-.003.43-.052.626-.145v-6.68c0-.651-.313-1.11-.99-1.11l.002-.004zM70.004 70.607c-1.689 0-2.8.58-2.8 1.328 0 .241.073.458.29.578a4.307 4.307 0 012.076-.554c1.357 0 2.003.554 2.003 2.075v.168a7.27 7.27 0 00-1.087-.071c-2.244 0-3.642.916-3.642 2.532 0 1.356.987 2.22 2.46 2.22.989 0 1.834-.482 2.243-1.109-.047.58.339.966.967.966.209-.003.415-.052.602-.145v-4.857c0-2.191-1.133-3.13-3.112-3.13zm1.565 6.032a1.845 1.845 0 01-1.713 1.086c-.893 0-1.375-.433-1.375-1.133 0-.822.626-1.376 2.098-1.376.331.001.662.025.99.072v1.35zM61.607 72.897c0-.748.652-1.037 1.565-1.037a3.741 3.741 0 012.027.531.673.673 0 00.266-.531c0-.7-.531-1.253-2.365-1.253-1.903 0-3.108.94-3.108 2.411 0 1.762 1.4 2.1 2.61 2.365.868.193 1.639.385 1.639 1.182 0 .749-.723 1.037-1.689 1.037-.844 0-1.52-.144-2.191-.53a.785.785 0 00-.241.579c0 .723.65 1.23 2.316 1.23 2.243 0 3.378-.965 3.378-2.436 0-1.762-1.4-2.1-2.558-2.39-.869-.216-1.64-.387-1.64-1.158h-.01zM51.063 70.608c-.725 0-1.713.603-2.027 1.495.145-.988-.363-1.302-.845-1.302-.22.014-.44.055-.651.12v6.901c0 .386.217.918.94.918a1.39 1.39 0 00.603-.145v-5.17c.266-.844.917-1.565 2.05-1.565.235-.006.47.01.7.049a.939.939 0 00.17-.555c0-.385-.241-.748-.94-.748v.002zM25.872 78.737c.188-.01.375-.044.555-.099v-5.645c.386-.579 1.183-1.061 1.955-1.061.916 0 1.448.505 1.448 1.52v4.174c0 .652.338 1.111.965 1.111.198.01.396-.023.58-.098v-5.502c0-1.712-1.183-2.485-2.534-2.485a3.274 3.274 0 00-2.414 1.11v-.047c0-.531-.217-.918-.916-.918-.217.002-.43.052-.626.145v6.68c0 .652.313 1.111.988 1.111v.004zM58.808 73.018c0-1.398-1.038-2.412-2.944-2.412-2.122 0-3.619 1.616-3.619 4.174 0 2.61 1.497 4.102 3.909 4.102 1.52 0 2.609-.483 2.609-1.253a.705.705 0 00-.217-.529c-.554.361-1.253.53-1.954.53-1.448 0-2.63-.845-2.727-2.505.464.125.942.19 1.423.194 2.124 0 3.523-.845 3.523-2.296l-.003-.005zm-2.944-1.134c.966 0 1.376.46 1.376 1.085 0 .725-.724 1.16-2.099 1.16a5.24 5.24 0 01-1.231-.145c.049-1.352.87-2.1 1.955-2.1z" fill="#0B6031"/><path d="M31.238 28.322a2.035 2.035 0 10-.635-4.02 2.035 2.035 0 00.635 4.02zm11.078-7.744a2.035 2.035 0 10-.658-4.017 2.035 2.035 0 00.658 4.017zm12.907.018a2.036 2.036 0 10.215-4.066 2.036 2.036 0 00-.215 4.066zm10.986 7.771a2.037 2.037 0 10.83-3.988 2.037 2.037 0 00-.83 3.988zm4.749 8.036a2.037 2.037 0 10-.464 4.052 2.037 2.037 0 00.464-4.054v.002zm-43.302 4.581a2.035 2.035 0 10-.766-3.997 2.035 2.035 0 00.765 3.997zm18.102-2.322c.178-.126.208-.313.014-.673-3.918-6.064-10.958-7.68-14.288-7.68-2.136 0-3.367.965-3.367.965 10.019.218 17.032 7.252 17.032 7.252.22.203.427.263.609.136zm-8.991-8.749c.226.189.443.27.58.157.088-.073.113-.227-.047-.468-2.058-3.103-1.416-6.974-1.416-6.974s-2.922 4.12.883 7.285zm8.799 2.234c.072.249.22.522.507.495.262-.026.333-.18.337-.576-.209-6.898-5.967-12.302-9.88-11.013 4.603 1.88 7.744 6.684 9.036 11.094zm-.467-8.002c.227-.032.226-.281.215-.45-.273-4.331 2.467-6.55 2.467-6.55l-.563.174c-2.646.805-2.97 4.07-2.464 6.403.06.302.19.442.345.423zm5.56 12.079c.313-.076.244-.58.244-.58-.806-8.005 5.268-12.74 7.732-13.916-4.566-.237-8.63 3.687-9.173 8.954a10.89 10.89 0 00.7 5.18c.124.267.286.409.497.362zm.505-13.01s-.074.389.198.522c.191.095.382.041.553-.296.826-1.724 1.023-4.8-1.731-7.44-.002.004 1.54 3.28.98 7.214zm6.122 10.297s-.456.287-.253.64c.105.187.357.26.666.143 2.697-1.315 4.72-3.752 5.522-6.817a10.38 10.38 0 00-.74-7.226 14.611 14.611 0 01-.355 5.705c-.83 3.172-2.59 5.79-4.84 7.555zm5.91-2.749c-.28.226-.295.437-.19.575.134.174.37.181.572.112 3.957-1.357 7.257-.533 7.257-.533-3.155-2.149-6.123-1.32-7.64-.154zm-4.514 8.342c-.119.014-.29.079-.3.218-.009.14.14.258.497.314 5.59.616 11.073-3.068 10.006-6.958-1.182 2.572-5.109 5.87-10.203 6.426zm6.458.665c-.313 0-.46.105-.5.26-.063.267.136.433.36.511 3.691 1.294 5.937 4.208 5.937 4.208-1.067-3.665-3.886-4.914-5.797-4.979zm-36.973-5.603a7.847 7.847 0 001.751 2.784c1.83 1.814 5.238 3.418 8.504 2.979.271-.037.43-.163.424-.379-.006-.237-.223-.288-.475-.293-4.61-.091-10.204-5.091-10.204-5.091zm5.393 6.827c-.011-.224-.184-.353-.528-.377-1.91-.129-4.848.78-6.317 4.3 0 0 2.706-2.713 6.366-3.495.298-.063.493-.173.48-.428zm33.796 17.352c-.653-.38-6.81-3.53-15.19-4.052-2.736-8.525 2.055-15.517 2.234-15.777.217-.313.225-.503.091-.6-.16-.116-.358-.015-.557.177 0 0-7.54 6.655-3.321 16.126-.45-.013-2.941-.025-3.966.056 1.76-2.674 1.455-6.346-.152-8.402-.15-.202-.286-.22-.418-.15-.131.07-.165.274-.082.494 0 0 1.583 4.197-.73 8.164-7.933.69-13.815 3.766-14.11 3.966a.183.183 0 00-.086.216c.024.07.11.105.26.044.177-.065 7.64-2.713 17.924-2.713 6.47 0 12.575.987 17.977 2.736.13.032.195.025.236-.054.04-.08-.002-.168-.11-.23z" fill="#8AB940"/><path d="M42.525 63.53h-1.118v-.567h1.782v2.26c-.06.068-.128.129-.204.18a2.23 2.23 0 01-.383.215 3.02 3.02 0 01-1.266.26 2.505 2.505 0 01-1.062-.209 1.968 1.968 0 01-.74-.583 2.506 2.506 0 01-.43-.89 4.322 4.322 0 01-.14-1.13 4.037 4.037 0 01.144-1.107c.085-.317.235-.613.44-.87.202-.247.461-.443.754-.571a2.6 2.6 0 011.082-.209c.191 0 .381.023.567.068.171.04.337.098.495.175.128.062.247.143.351.24a.365.365 0 01.136.252.469.469 0 01-.064.216c-.04.076-.088.148-.144.215h-.135a1.296 1.296 0 00-.191-.184 1.928 1.928 0 00-.276-.18 1.59 1.59 0 00-.351-.135 1.703 1.703 0 00-.436-.052c-.28-.01-.558.053-.806.184a1.461 1.461 0 00-.512.483c-.131.209-.222.44-.267.682a4.118 4.118 0 00.007 1.614c.051.253.149.494.288.71.136.209.32.382.536.505.254.135.539.201.826.19a1.93 1.93 0 00.976-.25c.052-.03.1-.065.144-.105l-.003-1.407zM44.267 61.99l.144-.008a.626.626 0 01.331.092.419.419 0 01.18.308c.09-.126.204-.233.335-.314a.917.917 0 01.522-.148c.063 0 .126.006.188.016.064.01.126.028.187.052a.38.38 0 01.144.104c.039.047.059.107.056.168a.692.692 0 01-.065.275 1.582 1.582 0 01-.127.244.817.817 0 00-.224-.148.86.86 0 00-.563-.007.764.764 0 00-.22.119.638.638 0 00-.152.172.397.397 0 00-.055.2v2.651h-.68l-.001-3.776zM47.015 61.964c.069-.005.117-.008.143-.008a.604.604 0 01.388.12c.098.08.147.22.147.423v1.861c-.004.166.01.332.044.495a.458.458 0 00.18.28.716.716 0 00.26.12 1.497 1.497 0 00.718-.028c.11-.035.213-.085.307-.149a.792.792 0 00.2-.187.319.319 0 00.072-.18v-2.747c.07-.005.117-.008.144-.008a.604.604 0 01.388.12c.098.08.147.22.147.423v3.259h-.678v-.352a1.423 1.423 0 01-.448.328 1.662 1.662 0 01-.743.144 1.478 1.478 0 01-.718-.144.948.948 0 01-.38-.368 1.225 1.225 0 01-.147-.491 5.498 5.498 0 01-.024-.515v-2.396zM51.335 61.989c.08 0 .13-.009.151-.009a.612.612 0 01.332.088.449.449 0 01.187.295c.117-.133.262-.24.424-.313.213-.094.446-.139.68-.131.2-.001.398.034.586.104.186.072.352.185.487.332.152.171.266.373.335.59.09.29.131.59.124.892.01.338-.04.674-.148.995-.08.234-.211.448-.383.626-.146.148-.325.26-.522.328-.18.061-.369.094-.56.096a1.317 1.317 0 01-.678-.149 1.155 1.155 0 01-.336-.267v2.02h-.678l-.001-5.497zm.678 2.867c.04.05.082.097.129.14a.901.901 0 00.195.14c.084.045.172.083.264.111.101.032.207.049.313.048a.844.844 0 00.746-.367c.168-.245.252-.596.252-1.054a2.73 2.73 0 00-.051-.543 1.291 1.291 0 00-.168-.44.835.835 0 00-.313-.292.99.99 0 00-.484-.104 1.166 1.166 0 00-.635.16.456.456 0 00-.252.384l.004 1.817zM55.831 65.285a1.765 1.765 0 01-.303-.635 2.989 2.989 0 01-.096-.763 2.525 2.525 0 01.112-.758c.069-.23.183-.442.335-.627.153-.18.342-.327.556-.428.244-.11.51-.166.778-.16.275-.007.548.047.799.16.209.1.392.246.535.428.142.184.245.395.304.62a2.96 2.96 0 010 1.497 1.81 1.81 0 01-.308.642c-.145.19-.332.343-.547.448a1.81 1.81 0 01-.815.168 1.851 1.851 0 01-.81-.16 1.46 1.46 0 01-.54-.432zm.835-.112a.93.93 0 00.512.129.968.968 0 00.527-.132.93.93 0 00.32-.336c.077-.144.13-.299.156-.46a2.786 2.786 0 000-.995 1.394 1.394 0 00-.156-.438.876.876 0 00-.313-.313 1.004 1.004 0 00-.522-.12.991.991 0 00-.507.12.919.919 0 00-.324.313c-.082.135-.14.284-.172.44a2.368 2.368 0 00-.05.49c0 .17.014.338.043.504.026.161.081.317.163.459.081.139.193.257.326.346l-.003-.007z" fill="#0B6031"/><defs><linearGradient id="paint0_linear_3360_56919" x1="48.999" y1="0" x2="48.999" y2="98" gradientUnits="userSpaceOnUse"><stop offset=".62" stop-color="#FDFEFC" stop-opacity=".61"/><stop offset=".69" stop-color="#D4E5B8" stop-opacity=".75"/><stop offset=".76" stop-color="#B3D284" stop-opacity=".86"/><stop offset=".83" stop-color="#9CC45E" stop-opacity=".94"/><stop offset=".91" stop-color="#8EBC47" stop-opacity=".98"/><stop offset="1" stop-color="#8AB940"/></linearGradient></defs></svg>